<svg xmlns="http://www.w3.org/2000/svg" xmlns:xlink="http://www.w3.org/1999/xlink" data-name="Group 202" width="1367.025" height="462"><rect id="backgroundrect" width="100%" height="100%" x="0" y="0" fill="none" stroke="none"/>
  <defs>
    <linearGradient id="linear-gradient" x1="1" y1="0.009999999776482582" x2="0" y2="1" gradientUnits="objectBoundingBox">
      <stop offset="0" stop-color="#a52eff"/>
      <stop offset="1" stop-color="#3d58f3"/>
    </linearGradient>
    <linearGradient id="linear-gradient-2" x1="0.8140000104904175" y1="0.10599999874830246" x2="0.21299999952316284" y2="0.8539999723434448" gradientUnits="objectBoundingBox">
      <stop offset="0" stop-color="#fff" stop-opacity="0"/>
      <stop offset="1" stop-color="#fff" stop-opacity="0.2"/>
    </linearGradient>
    <linearGradient id="linear-gradient-3" x1="0.09300000220537186" y1="0.11900000274181366" x2="0.9160000085830688" y2="0.8510000109672546" xlink:href="#linear-gradient-2"/>
  </defs>
  
  
  
  
  
  
  
  
  
  
  
  
<g class="currentLayer" style=""><title>Layer 1</title><path id="Path_152" data-name="Path 152" d="M0,462 s138.5,-112.93 310,-121.387 s208.5,80.593 376,87.558 S845.5,312.754 994,302.79999999999995 s188.5,92.533 286,85.568 s86.667,-43.705 86.667,-43.705 v-344 L0,0 z" fill="#eb1a1a" class="selected" fill-opacity="1"/><path id="Path_351" data-name="Path 351" d="M1273.3339999999998,188.00000018310547 c-41.333,-68 -80,121.334 -138.667,125.333 c-29.536,2.013 -33.726,-20.643 -42.515,-43.3 c-8.667,-22.346 -21.808,-44.691 -68.152,-43.367 C930.6669999999999,229.33300018310547 992,85.33300018310547 1093.3339999999998,81.33300018310547 c67.471,-2.664 70.511,-49.656 65.009,-80.768 l208.324,0.1 v344 s6.5920000000000005,22.366 -36.815,35.5 C1321.6689999999999,330.90800018310546 1302.9940000000001,236.7960001831055 1273.3339999999998,188.00000018310547 z" fill="url(#linear-gradient-2)"/><path id="Path_195" data-name="Path 195" d="M78.4990234375,319 a23.348,23.348 0 0 1 -16.617,-6.883 A23.345,23.345 0 0 1 54.9990234375,295.5 a23.347,23.347 0 0 1 6.883,-16.618 A23.348,23.348 0 0 1 78.4990234375,272 a23.348,23.348 0 0 1 16.617,6.883 A23.347,23.347 0 0 1 101.9990234375,295.5 a23.345,23.345 0 0 1 -6.883,16.617 A23.348,23.348 0 0 1 78.4990234375,319 zm0,-40.286 A16.805,16.805 0 0 0 61.71402343749992,295.5 A16.8,16.8 0 0 0 78.4990234375,312.286 A16.8,16.8 0 0 0 95.28502343750006,295.5 A16.805,16.805 0 0 0 78.4990234375,278.714 z" fill="#fff" stroke="rgba(0,0,0,0)" stroke-width="1" opacity="0.2"/><path id="Path_355" data-name="Path 355" d="M0.0007617187502546585,344.14700125122073 V0.0000012512207021586619 l5.658,0 c77.6,51.747 88.6,159.233 184.341,104 c52.73,-30.421 116.771,-72.154 176.222,-103.822 l231.295,0.11300000000000002 c-36.131,23.25 -95.348,48.932 -85.517,103.709 c14,78 60,182 -30,184 c-38.392,0.8530000000000001 -70.961,-20.493 -104.227,-41.84 c-44.718,-28.695 -90.7,-57.391 -153.773,-32.16 c-94.464,37.786 -183.03,130.145 -223.9,130.147 z" fill="url(#linear-gradient-3)"/><path id="Path_342" data-name="Path 342" d="M971.6220234375,98.99999780273437 a11.548,11.548 0 0 1 -8.219,-3.4 a11.546,11.546 0 0 1 -3.4,-8.218 a11.548,11.548 0 0 1 3.4,-8.219 a11.548,11.548 0 0 1 8.219,-3.4 a11.547,11.547 0 0 1 8.219,3.4 a11.547,11.547 0 0 1 3.4,8.219 a11.546,11.546 0 0 1 -3.4,8.218 A11.548,11.548 0 0 1 971.6220234375,98.99999780273437 zm0,-19.925 a8.312,8.312 0 0 0 -8.3,8.3 a8.311,8.311 0 0 0 8.3,8.3 a8.311,8.311 0 0 0 8.3,-8.3 A8.312,8.312 0 0 0 971.6220234375,79.07499780273437 z" fill="#fff" stroke="rgba(0,0,0,0)" stroke-width="1" opacity="0.2"/><circle id="Ellipse_80" data-name="Ellipse 80" cx="425.5" cy="120.5" r="13.5" fill="#fff" opacity="0.2"/><circle id="Ellipse_81" data-name="Ellipse 81" cx="1215.5" cy="303.5" r="18.5" fill="#fff" opacity="0.2"/><circle id="Ellipse_68" data-name="Ellipse 68" cx="622.5" cy="375.5" r="8.5" fill="#fff" opacity="0.2"/><g id="Path_343" data-name="Path 343" fill="none" opacity="0.2">
    <path d="M705.129373,69.819403 a2.114735,2.114735 0 0 1 3.672102,0 L689.981786,102.174166 A2.114735,2.114735 0 0 1 676.34482,98.48917 H645.974769702 A2.114735,2.114735 0 0 1 679.499538,63.078213999999996 z" stroke="none" id="svg_1"/>
    <path d="M706.1091894359589,76.8969958152771 C705.966158191681,76.36352793121337 705.4603829841615,75.07721849060059 703.8569889431,74.65549823760986 L678.2272767448426,67.91447249603272 C676.636189113617,67.49598780441283 675.5651816101075,68.35434857177734 675.1785672607423,68.74280947875977 C674.7919455413819,69.13127236175538 673.9387177352905,70.20634935760498 674.3647698898316,71.79540874481201 L681.1748236732483,97.19506880187988 C681.6008758277893,98.78412818908691 682.8774881706238,99.28816108703613 683.4065883445741,99.4311043319702 C683.935681148529,99.57404955291747 685.2924438705445,99.7814785194397 686.4607654571533,98.62316012573243 L705.2804298000336,79.96454792022705 C706.4577865066528,78.79726406097411 706.2522206802369,77.43046369934082 706.1091894359589,76.8969958152771 M710.9391884479523,75.60199213027954 C711.6542774848938,78.26908097076415 711.0446587924957,81.29134902191161 708.8011611289978,83.5156563796997 L689.9814862251283,102.17427339172363 C685.5289296035767,106.5887227859497 677.9685552024841,104.5461485595703 676.3448236732484,98.49006880187989 L669.5347698898315,73.09040874481201 C667.9110383605957,67.03432898712158 673.4355006904602,61.48350143432617 679.4992460975648,63.07835075378418 L705.128972808838,69.81938642883301 C708.184301656723,70.62298997497558 710.2240989170075,72.93490144729614 710.9391884479523,75.60199213027954 z" stroke="none" fill="#fff" id="svg_2"/>
  </g><g id="Path_344" data-name="Path 344" fill="none" opacity="0.2">
    <path d="M161.969783,49.836587 a-6.142319,-6.142319 0 0 1 -10.665367999999999,0 L130.173407,45.88248900000001 a-6.14148,-6.14148 0 0 1 5.3326839999999995,-9.188728 H144.696642085 A-6.142319,-6.142319 0 0 1 160.617361,26.106619000000006 z" stroke="none" id="svg_3"/>
    <path d="M156.46768018150328,53.039170644760134 C156.95378003120422,52.72340852546692 158.07371488952637,51.80143021392823 157.9746940898895,50.064231069564826 L156.62213594055174,26.333793045043947 C156.5238745727539,24.609922035217288 155.31979055023191,23.81924176025391 154.80666647338867,23.55930101013184 C154.29354111099244,23.29937929916382 152.94374926376344,22.796343441009526 151.49576182556152,23.7369312286377 L131.71695708847045,36.5849033164978 C130.26896965026856,37.52549110412598 130.1798603668213,38.96321244049072 130.208745388031,39.53768836593629 C130.2376483268738,40.112170856475835 130.4705824241638,41.53369345474243 132.00564857482908,42.32424073791504 L153.13701146125794,53.20670667457581 C154.68394032859803,54.00336048698425 155.98158033180235,53.35493276405335 156.46768018150328,53.039170644760134 M158.64767858123778,56.39517168426514 C156.57080760383604,57.74427142524719 153.8238539466858,58.06181969833374 151.30477459144592,56.76451906013489 L130.17340546798707,45.8820435218811 C125.17391436386109,43.30735677719116 124.82106426620483,36.29226635360718 129.53695708847044,33.22890331649781 L149.3157618255615,20.380931228637703 C154.03165464782714,17.317568191528323 160.29752418518066,20.49166267395019 160.61753490829466,26.10605955886841 L161.97010089492798,49.8365061454773 C162.13134265708922,52.665417615890505 160.72455115890503,55.04607090377807 158.64767858123778,56.39517168426514 z" stroke="none" fill="#fff" id="svg_4"/>
  </g><path id="Path_349" data-name="Path 349" d="M766.6660000000002,357.334 c49.333,-36 85.334,-4 98.667,-49.334 c11.337,-38.546 88.224,-26 105.256,-2.529 c-99.087,16.29 -120.5,88.257 -204.39,113.885 C750.6080000000002,402.493 738.1640000000002,378.133 766.6660000000002,357.334 z" fill="#fff" opacity="0.16"/><circle id="Ellipse_82" data-name="Ellipse 82" cx="295.5" cy="294.5" r="9.5" fill="#fff" opacity="0.2"/></g></svg>